<svg xmlns="http://www.w3.org/2000/svg" xmlns:xlink="http://www.w3.org/1999/xlink" version="1.1" width="256" height="256" viewBox="0 0 256 256" xml:space="preserve">
<desc>Created with Fabric.js 1.7.22</desc>
<defs>
</defs>
<g transform="translate(128 128) scale(0.72 0.72)" style="">
	<g style="stroke: none; stroke-width: 0; stroke-dasharray: none; stroke-linecap: butt; stroke-linejoin: miter; stroke-miterlimit: 10; fill-rule: nonzero; opacity: 1;" transform="translate(-175.05 -175.05000000000004) scale(3.89 3.89)" >
	<path d="M 45.515 89.979 c -11.657 0.001 -23.31 -4.436 -32.184 -13.31 C 4.734 68.072 0 56.643 0 44.484 C 0 32.327 4.734 20.897 13.332 12.3 c 6.15 -6.151 13.886 -10.388 22.371 -12.253 c 0.952 -0.211 1.916 0.297 2.283 1.201 c 0.367 0.903 0.029 1.939 -0.8 2.453 c -2.354 1.458 -4.528 3.178 -6.461 5.112 c -13.913 13.913 -13.913 36.551 0 50.464 c 13.913 13.911 36.55 13.912 50.465 0 c 1.933 -1.933 3.652 -4.106 5.111 -6.462 c 0.513 -0.827 1.547 -1.167 2.452 -0.8 c 0.903 0.367 1.411 1.331 1.201 2.283 c -1.865 8.484 -6.102 16.221 -12.253 22.371 C 68.828 85.541 57.17 89.978 45.515 89.979 z M 26.288 7.688 c -3.712 1.938 -7.127 4.44 -10.128 7.441 C 8.318 22.97 4 33.395 4 44.484 c 0 11.089 4.318 21.515 12.16 29.356 c 16.187 16.187 42.526 16.187 58.712 0 c 3.002 -3.002 5.504 -6.417 7.441 -10.13 c -15.563 13.845 -39.501 13.31 -54.418 -1.606 S 12.444 23.252 26.288 7.688 z M 82.603 60.69 h 0.01 H 82.603 z" style="stroke: none; stroke-width: 1; stroke-dasharray: none; stroke-linecap: butt; stroke-linejoin: miter; stroke-miterlimit: 10;fill-rule: nonzero; opacity: 1;" transform=" matrix(1 0 0 1 0 0) " stroke-linecap="round" />
	<path d="M 47.113 50.068 c -0.414 0 -0.827 -0.129 -1.176 -0.382 c -0.616 -0.447 -0.924 -1.206 -0.795 -1.956 l 1.841 -10.734 l -7.798 -7.602 c -0.545 -0.531 -0.741 -1.326 -0.506 -2.05 c 0.235 -0.724 0.861 -1.251 1.615 -1.361 l 10.777 -1.566 l 4.819 -9.766 c 0.338 -0.683 1.032 -1.115 1.794 -1.115 s 1.456 0.432 1.794 1.115 l 4.819 9.766 l 10.776 1.566 c 0.754 0.109 1.38 0.637 1.615 1.361 s 0.039 1.519 -0.507 2.05 l -7.798 7.602 l 1.841 10.734 c 0.128 0.75 -0.181 1.509 -0.796 1.956 c -0.615 0.448 -1.432 0.505 -2.106 0.152 l -9.639 -5.068 l -9.64 5.068 C 47.751 49.992 47.432 50.068 47.113 50.068 z M 57.684 40.511 c 0.319 0 0.64 0.077 0.931 0.23 l 6.982 3.671 l -1.334 -7.776 c -0.11 -0.648 0.104 -1.311 0.576 -1.77 l 5.649 -5.507 l -7.807 -1.134 c -0.652 -0.094 -1.215 -0.503 -1.506 -1.094 l -3.492 -7.075 l -3.492 7.075 c -0.291 0.59 -0.854 1 -1.506 1.094 l -7.806 1.134 l 5.649 5.507 c 0.472 0.459 0.688 1.122 0.575 1.771 l -1.334 7.775 l 6.983 -3.671 C 57.044 40.588 57.364 40.511 57.684 40.511 z" style="stroke: none; stroke-width: 1; stroke-dasharray: none; stroke-linecap: butt; stroke-linejoin: miter; stroke-miterlimit: 10; fill-rule: nonzero; opacity: 1;" transform=" matrix(1 0 0 1 0 0) " stroke-linecap="round" />
</g>
</g>
</svg>