<svg xmlns="http://www.w3.org/2000/svg" xmlns:xlink="http://www.w3.org/1999/xlink" version="1.1" width="256" height="256" viewBox="0 0 256 256" xml:space="preserve">
<desc>Created with Fabric.js 1.7.22</desc>
<defs>
</defs>
<g transform="translate(128 128) scale(0.72 0.72)" style="">
	<g style="stroke: none; stroke-width: 0; stroke-dasharray: none; stroke-linecap: butt; stroke-linejoin: miter; stroke-miterlimit: 10; fill-rule: nonzero; opacity: 1;" transform="translate(-175.05 -175.05000000000004) scale(3.89 3.89)" >
	<path d="M 45 69.586 c -13.557 0 -24.586 -11.029 -24.586 -24.586 S 31.443 20.414 45 20.414 S 69.586 31.443 69.586 45 S 58.557 69.586 45 69.586 z M 45 24.414 c -11.351 0 -20.586 9.235 -20.586 20.586 c 0 11.352 9.235 20.586 20.586 20.586 c 11.352 0 20.586 -9.234 20.586 -20.586 C 65.586 33.649 56.352 24.414 45 24.414 z" style="stroke: none; stroke-width: 1; stroke-dasharray: none; stroke-linecap: butt; stroke-linejoin: miter; stroke-miterlimit: 10;  fill-rule: nonzero; opacity: 1;" transform=" matrix(1 0 0 1 0 0) " stroke-linecap="round" />
	<path d="M 45 15.831 c -1.104 0 -2 -0.896 -2 -2 V 2 c 0 -1.104 0.896 -2 2 -2 s 2 0.896 2 2 v 11.831 C 47 14.935 46.104 15.831 45 15.831 z" style="stroke: none; stroke-width: 1; stroke-dasharray: none; stroke-linecap: butt; stroke-linejoin: miter; stroke-miterlimit: 10;  fill-rule: nonzero; opacity: 1;" transform=" matrix(1 0 0 1 0 0) " stroke-linecap="round" />
	<path d="M 45 90 c -1.104 0 -2 -0.896 -2 -2 V 76.17 c 0 -1.104 0.896 -2 2 -2 s 2 0.896 2 2 V 88 C 47 89.104 46.104 90 45 90 z" style="stroke: none; stroke-width: 1; stroke-dasharray: none; stroke-linecap: butt; stroke-linejoin: miter; stroke-miterlimit: 10;  fill-rule: nonzero; opacity: 1;" transform=" matrix(1 0 0 1 0 0) " stroke-linecap="round" />
	<path d="M 13.831 47 H 2 c -1.104 0 -2 -0.896 -2 -2 s 0.896 -2 2 -2 h 11.831 c 1.104 0 2 0.896 2 2 S 14.935 47 13.831 47 z" style="stroke: none; stroke-width: 1; stroke-dasharray: none; stroke-linecap: butt; stroke-linejoin: miter; stroke-miterlimit: 10;  fill-rule: nonzero; opacity: 1;" transform=" matrix(1 0 0 1 0 0) " stroke-linecap="round" />
	<path d="M 88 47 H 76.17 c -1.104 0 -2 -0.896 -2 -2 s 0.896 -2 2 -2 H 88 c 1.104 0 2 0.896 2 2 S 89.104 47 88 47 z" style="stroke: none; stroke-width: 1; stroke-dasharray: none; stroke-linecap: butt; stroke-linejoin: miter; stroke-miterlimit: 10; fill-rule: nonzero; opacity: 1;" transform=" matrix(1 0 0 1 0 0) " stroke-linecap="round" />
	<path d="M 67.04 24.96 c -0.512 0 -1.023 -0.195 -1.414 -0.586 c -0.781 -0.781 -0.781 -2.047 0 -2.828 l 8.365 -8.366 c 0.781 -0.781 2.047 -0.781 2.828 0 c 0.781 0.781 0.781 2.047 0 2.828 l -8.365 8.366 C 68.063 24.765 67.552 24.96 67.04 24.96 z" style="stroke: none; stroke-width: 1; stroke-dasharray: none; stroke-linecap: butt; stroke-linejoin: miter; stroke-miterlimit: 10;  fill-rule: nonzero; opacity: 1;" transform=" matrix(1 0 0 1 0 0) " stroke-linecap="round" />
	<path d="M 14.594 77.405 c -0.512 0 -1.024 -0.195 -1.414 -0.586 c -0.781 -0.781 -0.781 -2.047 0 -2.828 l 8.366 -8.365 c 0.78 -0.781 2.048 -0.781 2.828 0 c 0.781 0.781 0.781 2.047 0 2.828 l -8.366 8.365 C 15.618 77.21 15.106 77.405 14.594 77.405 z" style="stroke: none; stroke-width: 1; stroke-dasharray: none; stroke-linecap: butt; stroke-linejoin: miter; stroke-miterlimit: 10;  fill-rule: nonzero; opacity: 1;" transform=" matrix(1 0 0 1 0 0) " stroke-linecap="round" />
	<path d="M 22.96 24.96 c -0.512 0 -1.024 -0.195 -1.414 -0.586 l -8.366 -8.366 c -0.781 -0.781 -0.781 -2.047 0 -2.828 c 0.78 -0.781 2.048 -0.781 2.828 0 l 8.366 8.366 c 0.781 0.781 0.781 2.047 0 2.828 C 23.984 24.765 23.472 24.96 22.96 24.96 z" style="stroke: none; stroke-width: 1; stroke-dasharray: none; stroke-linecap: butt; stroke-linejoin: miter; stroke-miterlimit: 10;  fill-rule: nonzero; opacity: 1;" transform=" matrix(1 0 0 1 0 0) " stroke-linecap="round" />
	<path d="M 75.405 77.405 c -0.512 0 -1.023 -0.195 -1.414 -0.586 l -8.365 -8.365 c -0.781 -0.781 -0.781 -2.047 0 -2.828 s 2.047 -0.781 2.828 0 l 8.365 8.365 c 0.781 0.781 0.781 2.047 0 2.828 C 76.429 77.21 75.917 77.405 75.405 77.405 z" style="stroke: none; stroke-width: 1; stroke-dasharray: none; stroke-linecap: butt; stroke-linejoin: miter; stroke-miterlimit: 10;  fill-rule: nonzero; opacity: 1;" transform=" matrix(1 0 0 1 0 0) " stroke-linecap="round" />
	<path d="M 33.073 18.204 c -0.785 0 -1.53 -0.465 -1.849 -1.235 l -2.283 -5.513 c -0.423 -1.021 0.062 -2.19 1.083 -2.613 c 1.019 -0.422 2.19 0.062 2.613 1.083 l 2.283 5.513 c 0.423 1.021 -0.062 2.19 -1.083 2.613 C 33.587 18.154 33.328 18.204 33.073 18.204 z" style="stroke: none; stroke-width: 1; stroke-dasharray: none; stroke-linecap: butt; stroke-linejoin: miter; stroke-miterlimit: 10;  fill-rule: nonzero; opacity: 1;" transform=" matrix(1 0 0 1 0 0) " stroke-linecap="round" />
	<path d="M 59.213 81.311 c -0.785 0 -1.529 -0.465 -1.849 -1.235 l -2.284 -5.513 c -0.423 -1.021 0.062 -2.19 1.082 -2.613 c 1.019 -0.423 2.19 0.062 2.613 1.082 l 2.284 5.513 c 0.423 1.021 -0.062 2.19 -1.082 2.613 C 59.728 81.261 59.468 81.311 59.213 81.311 z" style="stroke: none; stroke-width: 1; stroke-dasharray: none; stroke-linecap: butt; stroke-linejoin: miter; stroke-miterlimit: 10;  fill-rule: nonzero; opacity: 1;" transform=" matrix(1 0 0 1 0 0) " stroke-linecap="round" />
	<path d="M 56.927 18.204 c -0.255 0 -0.515 -0.049 -0.765 -0.153 c -1.021 -0.423 -1.505 -1.593 -1.082 -2.613 l 2.284 -5.513 c 0.423 -1.02 1.592 -1.506 2.613 -1.082 c 1.021 0.423 1.505 1.593 1.082 2.613 l -2.284 5.513 C 58.456 17.739 57.712 18.204 56.927 18.204 z" style="stroke: none; stroke-width: 1; stroke-dasharray: none; stroke-linecap: butt; stroke-linejoin: miter; stroke-miterlimit: 10;  fill-rule: nonzero; opacity: 1;" transform=" matrix(1 0 0 1 0 0) " stroke-linecap="round" />
	<path d="M 30.788 81.311 c -0.255 0 -0.514 -0.05 -0.764 -0.153 c -1.021 -0.423 -1.505 -1.593 -1.083 -2.613 l 2.283 -5.513 c 0.422 -1.02 1.592 -1.505 2.613 -1.082 c 1.021 0.423 1.505 1.593 1.083 2.613 l -2.283 5.513 C 32.317 80.845 31.573 81.311 30.788 81.311 z" style="stroke: none; stroke-width: 1; stroke-dasharray: none; stroke-linecap: butt; stroke-linejoin: miter; stroke-miterlimit: 10;  fill-rule: nonzero; opacity: 1;" transform=" matrix(1 0 0 1 0 0) " stroke-linecap="round" />
	<path d="M 10.691 61.213 c -0.785 0 -1.53 -0.465 -1.849 -1.235 c -0.423 -1.021 0.062 -2.19 1.082 -2.613 l 5.513 -2.284 c 1.022 -0.424 2.191 0.061 2.613 1.082 c 0.423 1.021 -0.062 2.19 -1.082 2.613 l -5.513 2.284 C 11.206 61.163 10.946 61.213 10.691 61.213 z" style="stroke: none; stroke-width: 1; stroke-dasharray: none; stroke-linecap: butt; stroke-linejoin: miter; stroke-miterlimit: 10;  fill-rule: nonzero; opacity: 1;" transform=" matrix(1 0 0 1 0 0) " stroke-linecap="round" />
	<path d="M 73.798 35.072 c -0.785 0 -1.529 -0.465 -1.849 -1.235 c -0.423 -1.021 0.062 -2.19 1.082 -2.613 l 5.513 -2.283 c 1.023 -0.423 2.19 0.062 2.613 1.083 s -0.062 2.19 -1.082 2.613 l -5.513 2.283 C 74.312 35.023 74.053 35.072 73.798 35.072 z" style="stroke: none; stroke-width: 1; stroke-dasharray: none; stroke-linecap: butt; stroke-linejoin: miter; stroke-miterlimit: 10;  fill-rule: nonzero; opacity: 1;" transform=" matrix(1 0 0 1 0 0) " stroke-linecap="round" />
	<path d="M 16.202 35.072 c -0.255 0 -0.514 -0.049 -0.764 -0.153 l -5.513 -2.283 c -1.021 -0.422 -1.505 -1.592 -1.083 -2.613 c 0.422 -1.021 1.592 -1.507 2.613 -1.083 l 5.513 2.283 c 1.021 0.422 1.505 1.592 1.083 2.613 C 17.732 34.607 16.987 35.072 16.202 35.072 z" style="stroke: none; stroke-width: 1; stroke-dasharray: none; stroke-linecap: butt; stroke-linejoin: miter; stroke-miterlimit: 10;  fill-rule: nonzero; opacity: 1;" transform=" matrix(1 0 0 1 0 0) " stroke-linecap="round" />
	<path d="M 79.309 61.213 c -0.255 0 -0.515 -0.05 -0.765 -0.153 l -5.513 -2.284 c -1.021 -0.423 -1.505 -1.593 -1.082 -2.613 c 0.423 -1.021 1.594 -1.506 2.613 -1.082 l 5.513 2.284 c 1.021 0.423 1.505 1.593 1.082 2.613 C 80.838 60.747 80.094 61.213 79.309 61.213 z" style="stroke: none; stroke-width: 1; stroke-dasharray: none; stroke-linecap: butt; stroke-linejoin: miter; stroke-miterlimit: 10;  fill-rule: nonzero; opacity: 1;" transform=" matrix(1 0 0 1 0 0) " stroke-linecap="round" />
	<path d="M 57.704 47 c -1.104 0 -2 -0.896 -2 -2 c 0 -5.902 -4.802 -10.705 -10.704 -10.705 c -1.104 0 -2 -0.896 -2 -2 s 0.896 -2 2 -2 c 8.107 0 14.704 6.597 14.704 14.705 C 59.704 46.104 58.809 47 57.704 47 z" style="stroke: none; stroke-width: 1; stroke-dasharray: none; stroke-linecap: butt; stroke-linejoin: miter; stroke-miterlimit: 10;  fill-rule: nonzero; opacity: 1;" transform=" matrix(1 0 0 1 0 0) " stroke-linecap="round" />
</g>
</g>
</svg>